<svg id="Layer_1" data-name="Layer 1" xmlns="http://www.w3.org/2000/svg" viewBox="0 0 256 256"><defs><style>.cls-1{fill:#002b36;}.cls-2{fill:#34cac0;}.cls-3{fill:#37c9be;}</style></defs><rect class="cls-1" x="28.53" y="27.88" width="199.62" height="199.62" rx="13.14"/><path class="cls-2" d="M215,29.87A11.16,11.16,0,0,1,226.15,41V214.35A11.16,11.16,0,0,1,215,225.5H41.67a11.16,11.16,0,0,1-11.14-11.15V41A11.16,11.16,0,0,1,41.67,29.87H215m0-4H41.67A15.13,15.13,0,0,0,26.54,41V214.35a15.13,15.13,0,0,0,15.13,15.14H215a15.13,15.13,0,0,0,15.13-15.14V41A15.13,15.13,0,0,0,215,25.88Z"/><path class="cls-3" d="M39.69,71.13C39.92,81.31,46,88,54.31,93.45a7.22,7.22,0,0,1,2.43,2.81C37.89,93,29.74,69.59,42,55.22a38.43,38.43,0,0,1,5.41-5.09C54,45,61.92,41.06,64.89,32.53c1.87,4.23,2.11,8.27-.17,12.15a45.57,45.57,0,0,1-4.22,5.57c-1.7,2.08-3.67,4-5.22,6.17-6.45,9-5,17,4.19,23.62,1.25.89,2.52,1.74,3.91,2.69L58.45,91.4C49.25,86.94,42.31,80.92,39.69,71.13Z"/><path class="cls-3" d="M200.42,97.73c8.13-6,15.45-12.43,15-23.3-1.82,9.22-8,14.93-16.64,19l-4.72-7.62c1.72-1.28,3.54-2.49,5.19-3.87,6.13-5.14,7.32-10.63,3.2-17.31-2.14-3.45-5.12-6.44-7.74-9.63-3.33-4.06-4.35-8.42-1.69-14.12,2.46,8.57,10,12,15.91,16.79,7.12,5.84,11,13.09,9,22S209.17,94.09,200.42,97.73Z"/><path class="cls-3" d="M126.73,138.14l-16-10.63c6.48-19.27,4.32-40.08,5.94-60.59.51-6.49,2.5-7.7,11.16-7.4,6.32.23,7.67,1.81,7.77,8.09.25,14.2.25,28.43,1.25,42.58.41,5.67,3.21,11.19,5.07,17.29Z"/><path class="cls-3" d="M140.69,64.18C164.11,67.24,187.18,95,183.58,115c-7.76.14-8.14-.24-8.67-7.27-.5-6.64-1.37-13.19-7.14-18.93l3.11,22.08c-10.06-2.18-18.87-3.94-27.56-6.15-1.2-.3-2.49-2.78-2.52-4.27C140.6,88.5,140.69,76.56,140.69,64.18Z"/><path class="cls-3" d="M110.27,64.18v38.58l-40.21,7.33C69.61,95.77,86.4,68.45,110.27,64.18Z"/><path class="cls-3" d="M182.81,120.22v11.1c-6.06-2.31-11.53-4.6-17.15-6.48-4.73-1.59-9.55-3.34-14.48-3.89-6.89-.78-8.54-4.4-8.21-11.53Z"/><path class="cls-3" d="M67.91,124.72c-2.67-6.63-1.88-8.27,5.15-9.6q14.26-2.72,28.57-5.21a60.06,60.06,0,0,1,6.46-.44c.48,8,0,8-7.06,9.15C90.1,120.32,79.27,122.59,67.91,124.72Z"/><path class="cls-3" d="M191.28,109.76C187.12,99.69,183.15,90.1,178.54,79c2.73,1.51,5.72,2.21,6.82,4C189,88.79,192,95,195.23,101.09,197.73,105.83,195.84,108.59,191.28,109.76Z"/><path class="cls-3" d="M75.62,78c-5,10.55-9.37,19.82-14.59,30.86-1.12-2.84-3.09-5.26-2.46-6.64,3.32-7.27,7.14-14.36,11.18-21.31C70.51,79.55,73.06,79.16,75.62,78Z"/><path class="cls-3" d="M174.73,131.4l-30.39-9.94,5.61,8.81s-11.77,6.23-18.82,9.9c0,2.51,0,5,0,7.55a20.76,20.76,0,0,1-.2,3.26c-.52,3-2.82,4.7-5.48,5.53-1.23.39-3.14-.65-4.53-1.39a4.15,4.15,0,0,0-5.06.47c-3.12,2.47-6.21,5-9.42,7.33a3.56,3.56,0,0,1-2.57.59c-.5-.16-.93-1.33-.93-2a20.69,20.69,0,0,1,.45-4.36c.87-4.52-.72-7.85-5.22-9.9a15.2,15.2,0,0,1-2.69-1.61,12.1,12.1,0,0,1-4.09-14.53c1.12.4,2.27.79,3.4,1.21,6.37,2.46,12.77,4.91,19.15,7.36,2.09.81,3,.13,3.09-1.82-5.15-3.06-10.62-6.41-10.62-6.41l.2-10.12-33.06,9c0,5.57,0,11.17,0,16.75a20,20,0,0,0,.58,3.3c2.7-1.21,5-2.22,7.69-3.41-.38,12.88-3,25.2-2.35,38.42,1.63-1.84,2.61-2.94,3.43-3.89,2.06,6,3.67,12,6.13,17.56s6.81,10.19,12.85,13.95V196.92c.77,1,1.06,1.28,1.15,1.6,3.12,10,10.38,16.95,18.79,23.13,1.27,1,2.54,1.76,4.17.63,8.63-6,15.87-12.93,19.28-22.78.31-.85.67-1.68,1-2.54.24.07.5.12.74.18V213c11.79-7.94,17-18.8,18-31.86l.81.13c.94,1.24,1.87,2.48,3.29,4.32a16.69,16.69,0,0,0,.19-2.34c-.86-10.9-1.8-21.83-2.64-32.74a3.47,3.47,0,0,1,.7-2.4c.29-.32,1.58,0,2.32.34,1.49.56,2.88,1.3,5,2.29C174.73,143.92,174.68,137.6,174.73,131.4ZM115,173.33c6.4-6.86,13.66-6.83,18.86,0Zm39.19-27.92a96.77,96.77,0,0,1-8.87,6.61,2.58,2.58,0,0,1-2.47-.39,108.54,108.54,0,0,1-5.42-9.64,2.78,2.78,0,0,1,1-2.57c5.87-2.78,11.84-5.39,17.81-8,1.7-.74,2.61-.18,2.51,1.62,0,.63,0,1.28,0,2.18C159.2,139.18,157.38,142.64,154.19,145.41Z"/></svg>